<svg version="1.1" id="Layer_1" xmlns="http://www.w3.org/2000/svg" xmlns:xlink="http://www.w3.org/1999/xlink" x="0px" y="0px"
	 width="640px" height="127.645px" viewBox="0 0 640 127.645" xml:space="preserve">
<g fill="#FFFFFF">
	<rect x="151.842" y="17.094" width="11.988" height="53.5"/>
	<polygon points="220.659,51.503 194.464,17.094 183.365,17.094 183.365,70.594 195.352,70.594 195.352,37.073 220.659,70.594 
		232.646,70.594 232.646,17.094 220.659,17.094 	"/>
	<polygon points="251.516,70.594 263.503,70.594 263.503,49.725 287.034,49.725 287.034,39.293 263.503,39.293 263.503,27.528 
		288.366,27.528 288.366,17.094 251.516,17.094 	"/>
	<polygon points="317.225,17.094 305.238,17.094 305.238,70.594 340.09,70.594 340.09,59.938 317.225,59.938 	"/>
	<path d="M397.142,17.094h-11.986v29.525c0,4.438-0.889,7.77-2.887,10.211c-1.997,2.441-4.661,3.773-7.991,3.773
		c-3.329,0-5.993-1.331-7.991-3.773s-2.886-5.772-2.886-10.211V17.094h-11.987v29.97c0,7.547,2.22,13.542,6.438,17.759
		c4.219,4.217,9.769,6.215,16.428,6.215c6.66,0,12.21-1.998,16.428-6.215c4.218-3.997,6.438-9.991,6.438-17.759v-29.97H397.142z"/>
	<polygon points="455.082,60.16 427.555,60.16 427.555,49.06 451.529,49.06 451.529,38.848 427.555,38.848 427.555,27.749 
		454.193,27.749 454.193,17.094 415.789,17.094 415.789,70.815 455.082,70.815 	"/>
	<polygon points="510.801,17.094 510.801,51.503 484.606,17.094 473.507,17.094 473.507,70.594 485.494,70.594 485.494,37.073 
		511.023,70.594 523.011,70.594 523.011,17.094 511.023,17.094 	"/>
	<path d="M565.411,71.26c8.214,0,15.539-3.33,21.533-10.211l-7.548-7.77c-3.773,4.662-8.657,6.881-14.431,6.881
		c-4.438,0-7.991-1.554-11.1-4.662c-2.886-3.108-4.439-7.104-4.439-11.987c0-4.883,1.775-8.88,4.884-11.766
		c3.33-2.886,7.104-4.44,11.545-4.44c5.549,0,10.211,2.442,13.984,7.104l7.325-8.437c-5.771-6.659-13.319-9.988-21.977-9.988
		c-7.992,0-14.652,2.664-19.979,7.991c-5.55,5.328-8.214,11.766-8.214,19.758c0,7.991,2.664,14.65,7.992,19.757
		C550.315,68.596,557.197,71.26,565.411,71.26z"/>
	<polygon points="612.473,60.16 612.473,49.06 636.448,49.06 636.448,38.848 612.473,38.848 612.473,27.749 639.112,27.749 
		639.112,17.094 600.708,17.094 600.708,70.815 640,70.815 640,60.16 	"/>
	<polygon points="415.789,97.899 398.03,97.899 398.03,86.133 393.368,86.133 393.368,115.213 398.03,115.213 398.03,102.115 
		415.789,102.115 415.789,115.213 420.451,115.213 420.451,86.133 415.789,86.133 	"/>
	<polygon points="448.422,102.338 464.405,102.338 464.405,98.121 448.422,98.121 448.422,89.906 465.515,89.906 465.515,86.133 
		443.538,86.133 443.538,115.213 466.181,115.213 466.181,111.217 448.422,111.217 	"/>
	<path d="M496.372,86.133l-14.43,29.305h5.327l3.773-7.326h15.762l3.773,7.326h5.55l-14.43-29.305H496.372z M493.042,103.67
		l5.994-12.875l5.993,12.875H493.042z"/>
	<polygon points="538.328,86.133 533.444,86.133 533.444,115.213 554.756,115.213 554.756,111.217 538.328,111.217 	"/>
	<polygon points="565.189,90.129 577.398,90.129 577.398,115.213 582.061,115.213 582.061,90.129 594.27,90.129 594.27,86.133 
		565.189,86.133 	"/>
	<polygon points="635.116,98.121 617.579,98.121 617.579,86.133 612.695,86.133 612.695,115.213 617.579,115.213 617.579,101.893 
		635.116,101.893 635.116,115.213 640,115.213 640,86.133 635.116,86.133 	"/>
	<polygon points="57.718,42.401 57.718,85.244 57.718,99.008 106.333,127.645 106.333,71.037 94.124,63.933 106.333,56.608 
		106.333,0.001 57.718,28.636 	"/>
	<polygon points="0,56.608 12.209,63.933 0,71.037 0,127.645 48.616,99.008 48.616,85.244 48.616,42.401 48.616,28.636 0,0.001 	"/>
</g>
</svg>
